<?xml version="1.0" encoding="UTF-8"?>
<svg width="360px" height="147px" viewBox="0 0 360 147" version="1.1" xmlns="http://www.w3.org/2000/svg" xmlns:xlink="http://www.w3.org/1999/xlink">
    <!-- Generator: Sketch 52.5 (67469) - http://www.bohemiancoding.com/sketch -->
    <title>jala-logo-black</title>
    <desc>Created with Sketch.</desc>
    <g id="jala-logo-black" stroke="none" stroke-width="1" fill="none" fill-rule="evenodd">
        <path d="M43.3005236,89.6210621 C42.7141361,92.4293429 42.2450262,94.6525653 42.0104712,96.2907291 C41.7759162,97.9288929 41.6586387,99.3330333 41.6586387,100.386139 C41.6586387,101.439244 41.7759162,102.726373 42.1277487,104.130513 C42.4795812,105.534653 43.1832461,106.938794 44.3560209,108.108911 C46.3497382,109.864086 49.0471204,110.80018 52.3308901,110.80018 C54.4418848,110.80018 56.2010471,110.566157 57.7256545,109.981098 C59.2502618,109.39604 60.4230366,108.693969 61.478534,107.757876 C63.2376963,106.119712 64.5277487,104.013501 65.2314136,101.439244 C65.9350785,98.8649865 66.521466,96.6417642 66.9905759,94.5355536 L85.2858639,9 L120,9 L102.056545,91.9612961 C101.587435,94.4185419 101.001047,97.109811 100.297382,100.269127 C99.5937173,103.428443 98.6554974,106.587759 97.365445,109.864086 C96.1926702,113.140414 94.6680628,116.29973 92.9089005,119.459046 C91.1497382,122.618362 89.0387435,125.309631 86.4586387,127.766877 C83.7612565,130.341134 80.8293194,132.330333 77.5455497,133.851485 C74.2617801,135.372637 70.9780105,136.425743 67.8115183,137.244824 C64.5277487,137.946895 61.3612565,138.414941 58.3120419,138.648965 C55.2628272,138.882988 52.4481675,139 50.1026178,139 C47.8743455,139 45.5287958,139 42.8314136,138.765977 C40.1340314,138.648965 37.4366492,138.29793 34.6219895,137.712871 C31.8073298,137.127813 28.9926702,136.425743 26.295288,135.489649 C23.5979058,134.553555 21.1350785,133.149415 19.0240838,131.511251 C16.5612565,129.756076 14.6848168,127.766877 13.2774869,125.660666 C11.8701571,123.554455 10.6973822,121.448245 9.87643979,119.225023 C9.05549738,117.118812 8.58638743,114.89559 8.35183246,112.672367 C8.11727749,110.449145 8,108.459946 8,106.587759 C8,105.651665 8.11727749,104.364536 8.23455497,102.726373 C8.35183246,101.088209 8.46910995,99.450045 8.70366492,97.6948695 C8.9382199,95.939694 9.05549738,94.3015302 9.29005236,92.6633663 C9.52460733,91.0252025 9.7591623,89.7380738 9.99371728,88.5679568 L10.3455497,87.1638164 L43.7696335,87.1638164 L43.3005236,89.6210621 Z" id="Path" fill="#000000"></path>
        <path d="M123.211778,60.8110048 C125.753114,56.9425837 128.525481,53.6602871 131.528879,51.0813397 C134.416761,48.7368421 137.304643,46.9784689 140.308041,45.5717703 C143.311438,44.1650718 146.314836,43.1100478 149.318233,42.5239234 C152.321631,41.8205742 155.209513,41.4688995 158.097395,41.2344498 C160.985277,41 163.642129,41 166.06795,41 C174.500566,41 180.969422,41.5861244 185.359003,42.7583732 C189.748584,43.930622 193.098528,45.2200957 195.524349,46.5095694 C200.029445,49.2057416 203.263873,52.3708134 205.112118,56.1220096 C206.960362,59.8732057 208,64.0933014 208,68.8995215 C208,71.361244 207.768969,73.7057416 207.422424,76.1674641 C206.960362,78.6291866 206.498301,81.0909091 205.920725,83.6698565 L198.065685,119.77512 C197.834655,120.947368 197.603624,122.354067 197.372593,123.87799 C197.141563,125.401914 197.026048,126.574163 197.026048,127.629187 C197.026048,128.449761 197.141563,129.270335 197.257078,130.208134 C197.488109,131.028708 197.834655,131.849282 198.643262,132.552632 C199.336353,133.255981 200.029445,133.72488 200.722537,133.842105 L200.491506,135.600478 L166.298981,135.600478 L165.952435,126.339713 L165.374858,126.339713 C163.757644,127.980861 161.9094,129.739234 159.830125,131.380383 C157.750849,133.021531 155.556059,134.42823 153.245753,135.366029 C150.473386,136.538278 147.469989,137.476077 144.120045,138.062201 C140.770102,138.648325 137.535674,139 134.416761,139 C133.492639,139 132.221971,139 130.720272,138.882775 C129.218573,138.76555 127.601359,138.648325 125.86863,138.296651 C124.1359,137.944976 122.287656,137.476077 120.439411,136.772727 C118.591166,136.069378 116.858437,135.248804 115.241223,134.19378 C112.468856,132.435407 110.274066,129.973684 108.541336,126.925837 C106.808607,123.87799 106,120.009569 106,115.437799 C106,110.514354 106.808607,106.294258 108.541336,102.777512 C110.274066,99.2607656 112.237826,96.4473684 114.548131,94.3373206 C116.511891,92.4617225 118.822197,90.8205742 121.248018,89.6483254 C123.673839,88.4760766 126.09966,87.4210526 128.525481,86.7177033 C130.951302,85.8971292 133.261608,85.3110048 135.571914,84.9593301 L141.232163,84.0215311 L152.321631,82.7320574 C157.519819,82.145933 161.793884,81.5598086 165.028313,80.9736842 C168.262741,80.3875598 170.804077,79.4497608 172.652322,78.0430622 C174.038505,76.9880383 175.078143,75.6985646 175.540204,74.4090909 C176.002265,73.1196172 176.233296,71.5956938 176.233296,70.0717703 C176.233296,69.0167464 176.002265,67.8444976 175.655719,66.5550239 C175.193658,65.2655502 174.385051,64.2105263 173.114383,63.1555024 C172.074745,62.4521531 170.573046,61.8660287 168.724802,61.6315789 C166.876557,61.2799043 165.259343,61.1626794 163.988675,61.1626794 C161.216308,61.1626794 159.137033,61.5143541 157.519819,62.1004785 C155.902605,62.8038278 154.631937,63.6244019 153.707814,64.562201 C152.552661,65.7344498 151.628539,67.2583732 150.935447,69.0167464 C150.242356,70.7751196 149.89581,72.5334928 149.549264,74.1746411 L117.782559,74.1746411 C118.937712,69.1339713 120.785957,64.6794258 123.211778,60.8110048 Z M168.840317,95.1578947 C167.916195,95.5095694 166.876557,95.861244 165.605889,96.2129187 C164.335221,96.5645933 162.833522,96.9162679 161.100793,97.2679426 C159.368063,97.6196172 157.635334,97.9712919 156.01812,98.2057416 C153.476784,98.5574163 151.050963,99.0263158 148.625142,99.6124402 C146.19932,100.198565 144.120045,101.370813 142.271801,103.129187 C140.423556,105.004785 139.383918,107.583732 139.383918,110.514354 C139.383918,111.686603 139.614949,112.858852 139.961495,114.0311 C140.308041,115.203349 141.116648,116.258373 142.502831,117.196172 C143.542469,118.016746 144.697622,118.602871 145.852775,118.720096 C147.007928,118.954545 148.16308,118.954545 149.087203,118.954545 C151.050963,118.954545 153.014723,118.720096 154.978482,118.251196 C156.826727,117.782297 158.674972,116.961722 160.292186,115.672249 C163.757644,113.210526 166.183465,110.397129 167.685164,106.880383 C169.186863,103.480861 170.226501,100.433014 170.804077,97.7368421 L171.843715,93.3995215 C170.804077,94.3373206 169.764439,94.8062201 168.840317,95.1578947 Z" id="Shape" fill="#000000" fill-rule="nonzero"></path>
        <polygon id="Path" fill="#000000" points="238.794521 134 208 134 233.205479 9 264 9"></polygon>
        <path d="M267.211778,60.8110048 C269.753114,56.9425837 272.525481,53.6602871 275.528879,51.0813397 C278.416761,48.7368421 281.304643,46.9784689 284.308041,45.5717703 C287.311438,44.1650718 290.314836,43.1100478 293.318233,42.5239234 C296.321631,41.8205742 299.209513,41.4688995 302.097395,41.2344498 C304.985277,41 307.642129,41 310.06795,41 C318.500566,41 324.969422,41.5861244 329.359003,42.7583732 C333.748584,43.930622 337.098528,45.2200957 339.524349,46.5095694 C344.029445,49.2057416 347.263873,52.3708134 349.112118,56.1220096 C350.960362,59.8732057 352,64.0933014 352,68.8995215 C352,71.361244 351.768969,73.7057416 351.422424,76.1674641 C350.960362,78.6291866 350.498301,81.0909091 349.920725,83.6698565 L342.065685,119.77512 C341.834655,120.947368 341.603624,122.354067 341.372593,123.87799 C341.141563,125.401914 341.026048,126.574163 341.026048,127.629187 C341.026048,128.449761 341.141563,129.270335 341.257078,130.208134 C341.488109,131.028708 341.834655,131.849282 342.643262,132.552632 C343.336353,133.255981 344.029445,133.72488 344.722537,133.842105 L344.491506,135.600478 L310.298981,135.600478 L309.952435,126.339713 L309.374858,126.339713 C307.757644,127.980861 305.9094,129.739234 303.830125,131.380383 C301.866365,133.021531 299.556059,134.42823 297.245753,135.366029 C294.473386,136.538278 291.469989,137.476077 288.120045,138.062201 C284.770102,138.648325 281.535674,139 278.416761,139 C277.492639,139 276.221971,139 274.720272,138.882775 C273.218573,138.76555 271.601359,138.648325 269.86863,138.296651 C268.1359,137.944976 266.287656,137.476077 264.439411,136.772727 C262.591166,136.069378 260.858437,135.248804 259.241223,134.19378 C256.468856,132.435407 254.274066,129.973684 252.541336,126.925837 C250.808607,123.87799 250,120.009569 250,115.437799 C250,110.514354 250.808607,106.294258 252.541336,102.777512 C254.274066,99.2607656 256.237826,96.4473684 258.548131,94.3373206 C260.511891,92.4617225 262.822197,90.8205742 265.248018,89.6483254 C267.673839,88.4760766 270.09966,87.4210526 272.525481,86.7177033 C274.951302,85.8971292 277.261608,85.3110048 279.571914,84.9593301 L285.232163,84.0215311 L296.321631,82.7320574 C301.519819,82.145933 305.793884,81.5598086 309.028313,80.9736842 C312.262741,80.3875598 314.804077,79.4497608 316.652322,78.0430622 C318.038505,76.9880383 319.078143,75.6985646 319.540204,74.4090909 C320.002265,73.1196172 320.233296,71.5956938 320.233296,70.0717703 C320.233296,69.0167464 320.002265,67.8444976 319.655719,66.5550239 C319.193658,65.2655502 318.385051,64.2105263 317.114383,63.1555024 C316.074745,62.4521531 314.573046,61.8660287 312.724802,61.6315789 C310.876557,61.2799043 309.259343,61.1626794 307.988675,61.1626794 C305.216308,61.1626794 303.137033,61.5143541 301.519819,62.1004785 C299.902605,62.8038278 298.631937,63.6244019 297.707814,64.562201 C296.552661,65.7344498 295.628539,67.2583732 294.935447,69.0167464 C294.242356,70.7751196 293.89581,72.5334928 293.549264,74.1746411 L261.782559,74.1746411 C262.937712,69.1339713 264.785957,64.6794258 267.211778,60.8110048 Z M312.840317,95.1578947 C311.916195,95.5095694 310.761042,95.861244 309.605889,96.2129187 C308.335221,96.5645933 306.833522,96.9162679 305.100793,97.2679426 C303.368063,97.6196172 301.635334,97.9712919 300.01812,98.2057416 C297.476784,98.5574163 295.050963,99.0263158 292.625142,99.6124402 C290.19932,100.198565 288.120045,101.370813 286.271801,103.129187 C284.423556,105.004785 283.383918,107.583732 283.383918,110.514354 C283.383918,111.686603 283.614949,112.858852 283.961495,114.0311 C284.308041,115.203349 285.116648,116.258373 286.502831,117.196172 C287.542469,118.016746 288.697622,118.602871 289.852775,118.720096 C291.007928,118.954545 292.16308,118.954545 293.087203,118.954545 C295.050963,118.954545 297.014723,118.720096 298.978482,118.251196 C300.826727,117.782297 302.674972,116.961722 304.292186,115.672249 C307.757644,113.210526 310.183465,110.397129 311.685164,106.880383 C313.186863,103.480861 314.226501,100.433014 314.804077,97.7368421 L315.843715,93.3995215 C314.804077,94.3373206 313.764439,94.8062201 312.840317,95.1578947 Z" id="Shape" fill="#000000" fill-rule="nonzero"></path>
    </g>
</svg>